<svg height="512pt" viewBox="0 0 511 512" width="512pt" xmlns="http://www.w3.org/2000/svg" fill="white"><path d="m310.703125 116.964844-63.703125 21.230468-153.527344 153.53125-14.660156 43.980469-14.660156-14.660156-63.652344 63.652344 127.300781 127.300781 63.652344-63.652344-14.660156-14.660156 43.980469-14.660156 153.53125-153.527344 21.230468-63.703125c70.195313-71.65625 104.5625-168.015625 106.003906-172.128906l10.417969-29.667969-29.613281 10.570312c-4.097656 1.460938-100.023438 36.21875-171.640625 106.394532zm-182.902344 352.601562-84.867187-84.867187 21.21875-21.21875 84.867187 84.867187zm225.921875-237.214844-73.574218-73.574218 34.554687-11.519532 50.539063 50.539063zm-242.246094 100.242188 68.429688 68.429688-26.835938 8.945312-50.539062-50.539062zm97.867188 55.433594-84.871094-84.871094 128.8125-128.808594 84.867188 84.867188zm172.804688-215.753906-41.921876-41.925782c40.300782-36.785156 87.863282-62.679687 118.960938-77.320312-14.523438 31.195312-40.273438 78.914062-77.039062 119.246094zm0 0"/></svg>