<svg height="512pt" viewBox="-21 0 512 512" width="512pt" xmlns="http://www.w3.org/2000/svg" fill="white"><path d="m396.804688 403.753906c1.429687-1.355468 2.84375-2.726562 4.242187-4.121094 44.390625-44.21875 68.835937-103.007812 68.835937-165.546874 0-62.539063-24.445312-121.328126-68.835937-165.542969-44.371094-44.203125-103.363281-68.542969-166.105469-68.542969-62.742187 0-121.734375 24.339844-166.105468 68.542969-44.390626 44.214843-68.835938 103.003906-68.835938 165.542969 0 62.539062 24.445312 121.328124 68.835938 165.546874 1.398437 1.394532 2.8125 2.765626 4.242187 4.121094l-32.5625 86.949219c-3.050781 8.15625 1.082031 17.238281 9.234375 20.292969 1.824219.679687 3.691406 1.003906 5.527344 1.003906 6.382812 0 12.390625-3.90625 14.761718-10.238281l28.773438-76.835938c39.488281 28.089844 86.636719 43.246094 136.128906 43.246094 49.492188 0 96.640625-15.15625 136.128906-43.246094l28.773438 76.835938c2.371094 6.332031 8.382812 10.238281 14.765625 10.238281 1.835937 0 3.703125-.324219 5.527344-1.003906 8.152343-3.054688 12.285156-12.136719 9.230469-20.292969zm-365.28125-169.667968c0-111.691407 91.253906-202.5625 203.417968-202.5625 112.164063 0 203.417969 90.871093 203.417969 202.5625 0 111.691406-91.253906 202.558593-203.417969 202.558593-112.164062 0-203.417968-90.867187-203.417968-202.558593zm0 0"/><path d="m234.941406 76.414062c-87.246094 0-158.230468 70.730469-158.230468 157.671876 0 86.941406 70.984374 157.671874 158.230468 157.671874s158.230469-70.730468 158.230469-157.671874c0-86.941407-70.980469-157.671876-158.230469-157.671876zm0 283.820313c-69.863281 0-126.703125-56.589844-126.703125-126.148437 0-69.558594 56.839844-126.148438 126.703125-126.148438 69.863282 0 126.703125 56.589844 126.703125 126.148438 0 69.558593-56.835937 126.148437-126.703125 126.148437zm0 0"/><path d="m234.941406 161.558594c-40.113281 0-72.75 32.535156-72.75 72.527344 0 39.992187 32.636719 72.527343 72.75 72.527343 40.113282 0 72.75-32.535156 72.75-72.527343 0-39.992188-32.636718-72.527344-72.75-72.527344zm0 113.527344c-22.730468 0-41.222656-18.394532-41.222656-41 0-22.609376 18.492188-41.003907 41.222656-41.003907 22.730469 0 41.222656 18.394531 41.222656 41.003907.003907 22.605468-18.492187 41-41.222656 41zm0 0"/></svg>