<?xml version="1.0" encoding="iso-8859-1"?>
<svg xmlns="http://www.w3.org/2000/svg" xmlns:xlink="http://www.w3.org/1999/xlink" version="1.1" id="Capa_1" x="0px" y="0px" viewBox="0 0 512 512" style="enable-background:new 0 0 512 512;" xml:space="preserve" width="512" height="512" fill="white">
<path d="M491.681,103.278c23.634-23.641,23.637-61.904,0-85.546c-23.634-23.643-61.888-23.643-85.521,0  c-7.285,7.287-61.053,61.07-68.332,68.352l-30.508-30.517c-17.709-17.716-46.376-17.723-64.087-0.001  c-17.668,17.673-17.668,46.429,0,64.103l18.625,18.63L7.648,363.454c-3.215,2.848-5.056,6.938-5.056,11.234v122.308  c0,8.287,6.716,15.004,15,15.004h122.273c4.295,0,8.383-1.841,11.23-5.057l225.09-254.282l18.623,18.628  c17.706,17.715,46.375,17.721,64.086,0.001c17.669-17.673,17.669-46.43,0-64.103l-35.547-35.557L491.681,103.278z M427.372,38.951  c11.91-11.913,31.185-11.914,43.096,0c11.91,11.913,11.911,31.194,0,43.108l-27.265,27.273l-43.095-43.109L427.372,38.951z   M133.113,481.991H32.593V381.443L283.11,159.558l25.305,25.313l-194.844,194.9c-5.858,5.859-5.858,15.36,0,21.219  c5.858,5.86,15.355,5.859,21.213,0l194.844-194.9l25.305,25.313L133.113,481.991z M437.682,250.073  c-5.984,5.986-15.67,5.989-21.658-0.001L264.445,98.45c-5.971-5.973-5.971-15.691,0.002-21.665  c5.984-5.988,15.669-5.989,21.657,0.001l151.578,151.621C443.654,234.38,443.654,244.098,437.682,250.073z M359.04,107.303  l19.855-19.861l43.095,43.109l-19.854,19.86L359.04,107.303z"/>
</svg>
