<svg height="512pt" viewBox="0 0 512.002 512" width="512pt" xmlns="http://www.w3.org/2000/svg" fill="white"><path d="m464.867188 468.691406c-10.148438 0-20.160157 2.621094-29 7.441406-37.441407-49.957031-82.359376-35.0625-89.710938-32.609374-5.582031-10.234376-17.183594-31.507813-27.175781-49.863282-9.777344-17.949218-15.203125-38.066406-15.789063-58.390625h33.140625c8.285157 0 15-6.714843 15-15 0-8.285156-6.714843-15-15-15h-33.199219v-17.152343c0-25.617188 10.40625-50.738282 28.53125-68.898438 30.976563-30.914062 66.152344-28.125 74.824219-28.765625 11.539063 10.429687 26.554688 16.28125 42.3125 16.28125 34.847657 0 63.199219-28.351563 63.199219-63.203125 0-24.800781-14.21875-46.816406-36.136719-57.140625-10.839843-32.433594-41.183593-54.257813-75.265625-54.257813-7.625 0-15.082031 1.070313-22.277344 3.1875-18.015624-22.316406-44.914062-35.320312-74.121093-35.320312-17.171875 0-33.636719 4.492188-48.199219 13.074219-14.5625-8.582031-31.027344-13.074219-48.199219-13.074219-29.207031 0-56.105469 13.003906-74.121093 35.320312-7.195313-2.117187-14.652344-3.1875-22.277344-3.1875-34.082032 0-64.425782 21.824219-75.265625 54.261719-21.917969 10.320313-36.136719 32.335938-36.136719 57.140625 0 34.847656 28.351562 63.199219 63.199219 63.199219 15.757812 0 30.773437-5.851563 42.3125-16.28125 8.671875.640625 43.847656-2.148437 74.824219 28.769531 18.125 18.160156 28.53125 43.277344 28.53125 68.894532v17.152343h-33.199219c-8.285157 0-15 6.714844-15 15 0 8.285157 6.714843 15 15 15h33.140625c-.585938 20.328125-6.011719 40.441407-15.789063 58.390625-9.992187 18.359375-21.59375 39.628906-27.175781 49.863282-7.351562-2.453126-52.269531-17.347657-89.710938 32.609374-8.839843-4.816406-18.851562-7.441406-29-7.441406-15.914062 0-31.492187 6.453125-42.738281 17.699219-2.816406 2.8125-4.394531 6.628906-4.394531 10.605469 0 8.285156 6.714844 15.003906 15 15.003906 4.246094 0 8.082031-1.765625 10.808594-4.597656 5.648437-5.539063 13.402344-8.710938 21.324218-8.710938 7.949219 0 15.730469 3.191406 21.378907 8.765625 1.644531 1.691407 3.699219 3.007813 6.042969 3.785157 6.140624 2.027343 12.894531-.097657 16.753906-5.292969.011718-.015625 5.765625-7.761719 13.363281-17.859375 14.730469-19.621094 42.261719-24.328125 62.683594-10.734375 5.949219 3.960937 13.867187 3.175781 18.921875-1.882813 19.210937-19.21875 44.464844-28.828125 69.722656-28.820312 25.261719-.007813 50.511719 9.601562 69.726562 28.820312 5.050782 5.058594 12.972657 5.84375 18.921876 1.882813 20.417968-13.59375 47.949218-8.886719 62.683593 10.734375 7.59375 10.097656 13.351563 17.847656 13.363281 17.859375 3.855469 5.195312 10.609376 7.320312 16.75 5.292969 2.347657-.777344 4.398438-2.09375 6.042969-3.785157 5.652344-5.574219 13.429688-8.765625 21.378907-8.765625 7.921874 0 15.679687 3.171875 21.324218 8.710938 2.730469 2.832031 6.5625 4.597656 10.8125 4.597656 8.28125 0 15-6.71875 15-15.003906 0-3.980469-1.582031-7.792969-4.394531-10.605469-11.25-11.246094-26.828125-17.699219-42.742187-17.699219zm-298.832032-323.101562c-5.941406-4.921875-14.644531-4.53125-20.125.894531-9.234375 9.148437-21.488281 14.183594-34.511718 14.183594-3.007813 0-5.835938-.253907-8.644532-.78125-6.257812-1.167969-11.414062 1.75-14.21875 5.0625-6.328125 7.492187-15.5625 11.785156-25.335937 11.785156-18.304688 0-33.199219-14.894531-33.199219-33.199219 0-14.539062 9.289062-27.257812 23.117188-31.644531 5.105468-1.621094 8.960937-5.84375 10.113281-11.074219 4.929687-22.414062 25.1875-38.679687 48.167969-38.679687 7.429687 0 14.597656 1.632812 21.296874 4.855469 6.933594 3.332031 15.269532.878906 19.289063-5.679688 12.019531-19.605469 32.882813-31.3125 55.816406-31.3125 14.265625 0 27.8125 4.519531 39.183594 13.070312 4.476563 3.371094 11.894531 4.621094 18.03125 0 11.371094-8.550781 24.917969-13.070312 39.183594-13.070312 22.933593 0 43.796875 11.707031 55.816406 31.3125 4.019531 6.5625 12.355469 9.011719 19.289063 5.679688 6.699218-3.222657 13.863281-4.855469 21.292968-4.855469 22.980469 0 43.242188 16.265625 48.171875 38.679687 1.152344 5.234375 5.007813 9.453125 10.113281 11.074219 13.828126 4.386719 23.117188 17.101563 23.117188 31.644531 0 18.304688-14.894531 33.199219-33.199219 33.199219-9.773437 0-19.007812-4.296875-25.335937-11.785156-2.800782-3.316407-7.960938-6.230469-14.21875-5.0625-2.808594.523437-5.636719.78125-8.644532.78125-13.023437 0-25.277343-5.035157-34.511718-14.183594-5.480469-5.425781-14.183594-5.816406-20.125-.894531-11.910156 9.863281-26.351563 15.078125-41.765625 15.078125-14.265625 0-27.8125-4.519531-39.183594-13.070313-6.160156-4.632812-13.554687-3.367187-18.03125 0-11.371094 8.550782-24.917969 13.070313-39.183594 13.070313-15.414062 0-29.855469-5.214844-41.765625-15.078125zm25.890625 43.726562c5.222657.886719 10.53125 1.351563 15.875 1.351563 17.171875 0 33.636719-4.492188 48.199219-13.070313 14.5625 8.578125 31.027344 13.070313 48.199219 13.070313 5.339843 0 10.648437-.464844 15.871093-1.351563-39.890624 32.59375-46.9375 76.566406-46.9375 98.800782v17.152343h-34.269531v-17.152343c.003907-22.234376-7.046875-66.207032-46.9375-98.800782zm64.074219 227.351563c-15.589844-.003907-31.179688 2.800781-45.933594 8.414062 3.109375-5.699219 6.277344-11.519531 9.300782-17.074219 12.167968-22.339843 18.847656-47.414062 19.441406-72.738281h34.382812c.59375 25.324219 7.273438 50.398438 19.441406 72.738281 3.023438 5.554688 6.191407 11.375 9.300782 17.074219-14.753906-5.613281-30.34375-8.417969-45.933594-8.414062zm0 0"/></svg>